<svg xmlns="http://www.w3.org/2000/svg" xmlns:xlink="http://www.w3.org/1999/xlink" version="1.1" x="0px" y="0px" viewBox="0 0 100 125" enable-background="new 0 0 100 100" xml:space="preserve"><path fill="#000000" d="M78.925,79.484c-3.728-5.769-8.735-9.998-8.735-9.998c0.413-3.528-2.96-6.849-2.96-6.849  c-1.371-2.315-2.113-1.721-2.113-1.721c-4.499,3.76-7.391-2.974-7.391-2.974l-1.802,0.128l-4.641-7.574l0.403-1.96l-6.726-6.339  L26.564,26.974c-1.217-0.999-2.714-1.677-2.714-1.677c-0.904-3.375-1.371-2.316-1.371-2.316C8.907,11.155,9.356,13.234,9.356,13.234  c0.499-2.328-1.059-0.467-1.059-0.467L7.354,12.23C8.016,9.65,6.631,9.688,6.631,9.688l-5.444-4.44l2.767-3.515l1.127,0.584  c2.826-1.83,0.613,1.827,0.613,1.827l2.118,0.936l17.601,13.35c0.935,2.105,1.518,0.978,1.518,0.978l14.175,10.999  c2.363-1.556,2.594,2.531,2.594,2.531l16.331,13.32c1.999-2.436,3.636,1.914,3.636,1.914l5.538,4.071l-0.798,2.35  c1.176,0.397,1.767,1.926,1.767,1.926c2.648,5,5.975,8.505,5.975,8.505L99,84.332l-0.241,1.706C92.742,88.82,89.331,96,89.331,96  L78.925,79.484z M61.66,59.88c1.401,0.686,2.837-0.771,2.837-0.771c-2.833-1.764-4.662-3.588-4.662-3.588  C60.368,59.417,61.66,59.88,61.66,59.88z"/><path fill="#000000" d="M62.57,57.679c0,0,0.263,1.796-1.507,1.034c0,0,0.026,0.235,0.476,0.446c0,0,1.097,0.594,1.519-1.088  L62.57,57.679z"/><text x="0" y="115" fill="#000000" font-size="5px" font-weight="bold" font-family="'Helvetica Neue', Helvetica, Arial-Unicode, Arial, Sans-serif">Created by Mahmudur Rahman Shovy</text><text x="0" y="120" fill="#000000" font-size="5px" font-weight="bold" font-family="'Helvetica Neue', Helvetica, Arial-Unicode, Arial, Sans-serif">from the Noun Project</text></svg>